<?xml version="1.0" encoding="utf-8"?>
<!-- Generator: Adobe Illustrator 26.3.1, SVG Export Plug-In . SVG Version: 6.00 Build 0)  -->
<svg version="1.1" id="Layer_1" xmlns="http://www.w3.org/2000/svg" xmlns:xlink="http://www.w3.org/1999/xlink" x="0px" y="0px"
	 viewBox="0 0 391.5 163.7" style="enable-background:new 0 0 391.5 163.7;" xml:space="preserve">
<style type="text/css">
	.st0{fill:#4F4F51;}
	.st1{opacity:0.32;}
	.st2{fill:#7FA389;}
	.st3{opacity:0.64;}
	.st4{opacity:0.67;fill:none;stroke:#71C9BB;stroke-miterlimit:10;}
	.st5{opacity:0.15;fill:none;stroke:#71C9BB;stroke-miterlimit:10;}
	.st6{opacity:0.37;fill:#7FA389;}
	.st7{fill:#71C9BB;}
	.st8{fill:#414042;}
	.st9{fill:#2E2E2F;}
	.st10{opacity:0.48;}
	.st11{opacity:0.67;}
	.st12{fill:#FFFFFF;}
	.st13{fill:#231F20;}
	.st14{opacity:0.45;}
	.st15{fill:none;stroke:#71C9BB;stroke-miterlimit:10;}
	.st16{fill:#C0C2C4;}
	.st17{opacity:0.12;}
</style>
<g>
	<path class="st7" d="M133.7,80.1c0,8-3.3,15.7-6.2,22.7c-3,7.2-7.4,13.9-12.8,19.3c-5.4,5.4-12,10.1-19.2,13.1
		c-7,2.9-14.8,5.3-22.8,5.3c-8,0-16-2-23-4.9c-7.2-3-12.1-9.5-17.6-14.9c-5.4-5.4-11.5-10.5-14.5-17.8c-2.9-7-3.5-14.8-3.5-22.8
		c0-8-0.9-16.5,1.9-23.5c3-7.2,9.3-13,14.8-18.4c5.4-5.4,11.5-11.1,18.7-14.1c7-2.9,15.2-3.2,23.2-3.2c8,0,15.8,1.4,22.7,4.3
		c7.2,3,14.2,7.1,19.6,12.5c5.4,5.4,10.2,12.1,13.1,19.3C131,64.1,133.7,72.1,133.7,80.1z"/>
	<polygon class="st12" points="89.4,46 76.7,47.9 80.4,72.5 53.8,52 46,62.2 69.3,80.1 46,98.1 53.8,108.3 80.4,87.8 76.7,112.4 
		89.4,114.3 94.5,80.1 	"/>
</g>
<path class="st8" d="M225.2,81.9c-0.9,0.5-1.5,0.5-1.9-0.4l-2.5-5.5c-0.4-0.8-0.3-1.2,0.5-1.8c4-2.5,10-4.4,16.3-4.4
	c4,0,9.3,0.8,12.7,4.6c2.2,2.5,3.5,5.6,3.5,10.7v24.4c0,0.7-0.6,1.3-1.3,1.3h-7.7c-0.8,0-1.4-0.6-1.4-1.3v-0.7h-0.4
	c-3.6,2.3-6.7,2.9-10.7,2.9c-3.6,0-6.9-1.1-9.3-3.3c-2.5-2-4-5.2-4-9.1c0-5.2,3.1-8.3,7.3-10.2c4.8-2.1,11.2-2.8,15.9-3.2V85
	c0-2-0.4-3.5-1.2-4.6c-1-1.2-2.8-1.8-4.8-1.8C232.1,78.7,228.2,80.2,225.2,81.9z M242.3,101.4v-7.6c-5.3,0.2-12.1,0.9-12.1,5.2
	c0,2.8,2.7,4.1,6,4.1C238.2,103,240.3,102.6,242.3,101.4z"/>
<path class="st8" d="M281.2,99.4c0-1.9-1.6-2.6-3.8-3.6c-2.5-1.1-5.6-2.1-8.4-3.5c-4.3-2.1-6.5-5.4-6.5-10.5c0-7.4,5.7-12,16.1-12
	c6.4,0,10.5,1.3,13.6,3.1c0.9,0.4,0.9,1.1,0.5,1.8l-3.2,6.5c-0.4,0.7-0.9,0.8-1.6,0.4c-3.5-1.9-6.5-2.5-9.1-2.5
	c-2.4,0-4.1,0.8-4.1,2.8c0,1.8,1.8,2.6,3.9,3.4c2.8,1.1,5.4,1.9,8.2,3.3c4.7,2.3,6.6,5.9,6.6,10.2c0,7.4-6.4,12.9-16.6,12.9
	c-7.3,0-11.4-1.6-14.5-3.3c-0.8-0.4-1-1.1-0.6-1.7l3.3-6.8c0.4-0.7,1-0.9,1.7-0.5c3.5,2,6.2,3.3,9.9,3.3
	C279.5,102.6,281.2,101.5,281.2,99.4z"/>
<path class="st8" d="M317.8,69.7c7.4,0,13.9,2.1,18.1,6.3c3.5,3.4,5.6,8.3,5.6,14.7c0,6.3-1.8,11-4.7,14.3
	c-4.1,4.7-10.5,6.6-16.7,6.6c-2.3,0-4.2-0.2-6.2-0.7V130c0,0.8-0.6,1.4-1.3,1.4h-9c-0.8,0-1.3-0.6-1.3-1.4V72.7
	c0-0.8,0.4-1.3,1.3-1.6C307.2,70.2,312.6,69.7,317.8,69.7z M313.9,101.4c1.4,0.5,3,0.8,4.9,0.8c2.9,0,5.8-0.6,8-2.5
	c1.9-1.8,3.2-4.7,3.2-8.9c0-3.5-1.1-6.2-2.8-8.3c-1.9-2.1-4.8-3.3-8.3-3.3c-1.6,0-3.5,0.1-5,0.4V101.4z"/>
<path class="st8" d="M354,81.9c-0.9,0.5-1.5,0.5-1.9-0.4l-2.5-5.5c-0.4-0.8-0.3-1.2,0.5-1.8c4-2.5,10-4.4,16.3-4.4
	c4,0,9.3,0.8,12.7,4.6c2.2,2.5,3.5,5.6,3.5,10.7v24.4c0,0.7-0.6,1.3-1.3,1.3h-7.7c-0.8,0-1.4-0.6-1.4-1.3v-0.7h-0.4
	c-3.6,2.3-6.7,2.9-10.7,2.9c-3.6,0-6.9-1.1-9.3-3.3c-2.5-2-4-5.2-4-9.1c0-5.2,3.1-8.3,7.3-10.2c4.8-2.1,11.2-2.8,15.9-3.2V85
	c0-2-0.4-3.5-1.2-4.6c-1-1.2-2.8-1.8-4.8-1.8C360.8,78.7,357,80.2,354,81.9z M371,101.4v-7.6c-5.3,0.2-12.1,0.9-12.1,5.2
	c0,2.8,2.7,4.1,6,4.1C366.9,103,369,102.6,371,101.4z"/>
<path class="st8" d="M216.6,108.8c1,1,0.5,2-0.6,2h-12.7c-1.1,0-1.9-0.4-2.7-1.3l-18-17.6v17.6c0,0.7-0.5,1.3-1.3,1.3h-9.9
	c-0.8,0-1.4-0.6-1.4-1.3V52.3c0-0.7,0.6-1.3,1.4-1.3h9.9c0.8,0,1.3,0.6,1.3,1.3v17.6l18-17.6c0.8-0.9,1.7-1.3,2.7-1.3H216
	c1.1,0,1.6,1.1,0.6,2l-28.5,27.9L216.6,108.8z"/>
</svg>
